<svg width="1283" height="1444" xmlns="http://www.w3.org/2000/svg" xmlns:xlink="http://www.w3.org/1999/xlink" xml:space="preserve" overflow="hidden"><g transform="translate(-1104 -279)"><g><path d="M1106 615.048C1106 556.479 1153.48 509 1212.05 509L2184.95 509C2243.52 509 2291 556.479 2291 615.048L2291 1563.98C2291 1622.54 2243.52 1670.02 2184.95 1670.02L1212.05 1670.02C1153.48 1670.02 1106 1622.54 1106 1563.98Z" fill="#698EB0" fill-rule="evenodd" fill-opacity="1"/><path d="M1206 662.582C1206 632.437 1230.44 608 1260.58 608L2136.42 608C2166.56 608 2191 632.437 2191 662.582L2191 1531.42C2191 1561.56 2166.56 1586 2136.42 1586L1260.58 1586C1230.44 1586 1206 1561.56 1206 1531.42Z" fill="#FFFFFF" fill-rule="evenodd" fill-opacity="1"/><path d="M1333 867.123C1333 850.487 1346.49 837 1363.12 837L1843.88 837C1860.51 837 1874 850.487 1874 867.123L1874 887.877C1874 904.514 1860.51 918 1843.88 918L1363.12 918C1346.49 918 1333 904.514 1333 887.877Z" fill="#9DBBD9" fill-rule="evenodd" fill-opacity="1"/><path d="M1333 1062.75C1333 1046.32 1346.32 1033 1362.75 1033L1728.25 1033C1744.68 1033 1758 1046.32 1758 1062.75L1758 1083.25C1758 1099.68 1744.68 1113 1728.25 1113L1362.75 1113C1346.32 1113 1333 1099.68 1333 1083.25Z" fill="#9DBBD9" fill-rule="evenodd" fill-opacity="1"/><path d="M1333 1258.75C1333 1242.32 1346.32 1229 1362.75 1229L1615.25 1229C1631.68 1229 1645 1242.32 1645 1258.75L1645 1279.25C1645 1295.68 1631.68 1309 1615.25 1309L1362.75 1309C1346.32 1309 1333 1295.68 1333 1279.25Z" fill="#9DBBD9" fill-rule="evenodd" fill-opacity="1"/><path d="M1438.11 433 1633.9 433 1633.51 434.922C1633.51 470.83 1662.61 499.94 1698.5 499.94 1734.39 499.94 1763.49 470.83 1763.49 434.922L1763.1 433 1958.89 433C1993.75 433 2022 461.267 2022 496.136L2022 616.864C2022 651.733 1993.75 680 1958.89 680L1438.11 680C1403.25 680 1375 651.733 1375 616.864L1375 496.136C1375 461.267 1403.25 433 1438.11 433Z" fill="#A5B2BF" fill-rule="evenodd" fill-opacity="1"/><path d="M1547 435C1547 351.605 1614.6 284 1698 284 1781.4 284 1849 351.605 1849 435 1849 518.395 1781.4 586 1698 586 1614.6 586 1547 518.395 1547 435ZM1634.21 435C1634.21 470.228 1662.77 498.785 1698 498.785 1733.23 498.785 1761.79 470.228 1761.79 435 1761.79 399.772 1733.23 371.215 1698 371.215 1662.77 371.215 1634.21 399.772 1634.21 435Z" fill="#A5B2BF" fill-rule="evenodd" fill-opacity="1"/><path d="M1775.34 1193.11C1881.25 1041.85 2089.73 1005.09 2240.99 1111.01 2392.24 1216.92 2429 1425.39 2323.09 1576.65 2217.18 1727.91 2008.7 1764.67 1857.45 1658.75 1706.19 1552.84 1669.43 1344.37 1775.34 1193.11Z" fill="#E14B50" fill-rule="evenodd" fill-opacity="1"/><path d="M2056.18 1179.4C2064.75 1167.16 2081.63 1164.19 2093.87 1172.76L2233.27 1270.37C2245.51 1278.94 2248.49 1295.82 2239.92 1308.06L2239.92 1308.06C2231.35 1320.3 2214.47 1323.27 2202.23 1314.7L2062.83 1217.09C2050.59 1208.52 2047.61 1191.65 2056.18 1179.4Z" fill="#FFFFFF" fill-rule="evenodd" fill-opacity="1"/><path d="M1911.04 1358.7C1919.61 1346.46 1936.48 1343.49 1948.72 1352.06L2114.43 1468.09C2126.67 1476.66 2129.65 1493.53 2121.08 1505.77 2112.5 1518.01 2095.63 1520.99 2083.39 1512.42L1917.68 1396.39C1905.44 1387.82 1902.46 1370.94 1911.04 1358.7Z" fill="#FFFFFF" fill-rule="evenodd" fill-opacity="1"/><path d="M1957.41 1358.14 2071.58 1223.22 2193.48 1308.57 2105.74 1462Z" fill="#FFFFFF" fill-rule="evenodd" fill-opacity="1"/><path d="M2036.42 1479.53 1906.86 1588.19 1964.66 1429.28Z" fill="#FFFFFF" fill-rule="evenodd" fill-opacity="1"/></g></g></svg>